<svg width="21" height="20" viewBox="0 0 21 20" fill="none" xmlns="http://www.w3.org/2000/svg">
<g clip-path="url(#clip0)">
<path d="M20.1016 10C20.1016 4.47656 15.625 0 10.1016 0C4.57812 0 0.101562 4.47656 0.101562 10C0.101562 15.5234 4.57812 20 10.1016 20C10.1602 20 10.2188 20 10.2773 19.9961V12.2148H8.12891V9.71094H10.2773V7.86719C10.2773 5.73047 11.582 4.56641 13.4883 4.56641C14.4023 4.56641 15.1875 4.63281 15.4141 4.66406V6.89844H14.1016C13.0664 6.89844 12.8633 7.39062 12.8633 8.11328V9.70703H15.3438L15.0195 12.2109H12.8633V19.6133C17.043 18.4141 20.1016 14.5664 20.1016 10Z" fill="#D62020"/>
</g>
<defs>
<clipPath id="clip0">
<rect width="20" height="20" fill="white" transform="translate(0.101562)"/>
</clipPath>
</defs>
</svg>
